<svg xmlns="http://www.w3.org/2000/svg" viewBox="0 0 400 50" preserveAspectRatio="none">
  <defs>
    <linearGradient id="goldRail" x1="0" y1="0" x2="0" y2="1">
      <stop offset="0%" stop-color="#FFD700"/>
      <stop offset="30%" stop-color="#DAA520"/>
      <stop offset="70%" stop-color="#B8860B"/>
      <stop offset="100%" stop-color="#8B6914"/>
    </linearGradient>
    <linearGradient id="goldRailTop" x1="0" y1="0" x2="0" y2="1">
      <stop offset="0%" stop-color="#FFD700"/>
      <stop offset="100%" stop-color="#DAA520"/>
    </linearGradient>
    <linearGradient id="balusterGrad" x1="0" y1="0" x2="1" y2="0">
      <stop offset="0%" stop-color="#B8860B"/>
      <stop offset="30%" stop-color="#DAA520"/>
      <stop offset="50%" stop-color="#FFD700"/>
      <stop offset="70%" stop-color="#DAA520"/>
      <stop offset="100%" stop-color="#B8860B"/>
    </linearGradient>
    <filter id="railShadow">
      <feDropShadow dx="0" dy="-2" stdDeviation="2" flood-color="#000" flood-opacity="0.4"/>
    </filter>
  </defs>

  <!-- Top rail bar -->
  <rect x="0" y="2" width="400" height="6" rx="2" fill="url(#goldRailTop)" filter="url(#railShadow)"/>
  <!-- Top rail highlight -->
  <rect x="0" y="2" width="400" height="2" rx="1" fill="rgba(255,255,255,0.2)"/>

  <!-- Bottom rail bar -->
  <rect x="0" y="42" width="400" height="6" rx="2" fill="url(#goldRail)"/>

  <!-- Middle rail (thinner) -->
  <rect x="0" y="22" width="400" height="3" rx="1" fill="#B8860B" opacity="0.6"/>

  <!-- Balusters - repeating ornate spindles every 25px -->
  <!-- Each baluster: thin neck, wider middle bulge, thin neck -->
  <g fill="url(#balusterGrad)">
    <!-- Baluster template repeated across width -->
    <!-- x=12 -->
    <path d="M11,8 L11,12 Q9,15 9,18 L9,22 L8,22 L8,25 L9,25 Q9,28 9,30 L9,34 Q9,37 11,40 L11,42 L14,42 L14,40 Q16,37 16,34 L16,30 Q16,28 16,25 L17,25 L17,22 L16,22 L16,18 Q16,15 14,12 L14,8 Z"/>
    <!-- x=37 -->
    <path d="M36,8 L36,12 Q34,15 34,18 L34,22 L33,22 L33,25 L34,25 Q34,28 34,30 L34,34 Q34,37 36,40 L36,42 L39,42 L39,40 Q41,37 41,34 L41,30 Q41,28 41,25 L42,25 L42,22 L41,22 L41,18 Q41,15 39,12 L39,8 Z"/>
    <!-- x=62 -->
    <path d="M61,8 L61,12 Q59,15 59,18 L59,22 L58,22 L58,25 L59,25 Q59,28 59,30 L59,34 Q59,37 61,40 L61,42 L64,42 L64,40 Q66,37 66,34 L66,30 Q66,28 66,25 L67,25 L67,22 L66,22 L66,18 Q66,15 64,12 L64,8 Z"/>
    <!-- x=87 -->
    <path d="M86,8 L86,12 Q84,15 84,18 L84,22 L83,22 L83,25 L84,25 Q84,28 84,30 L84,34 Q84,37 86,40 L86,42 L89,42 L89,40 Q91,37 91,34 L91,30 Q91,28 91,25 L92,25 L92,22 L91,22 L91,18 Q91,15 89,12 L89,8 Z"/>
    <!-- x=112 -->
    <path d="M111,8 L111,12 Q109,15 109,18 L109,22 L108,22 L108,25 L109,25 Q109,28 109,30 L109,34 Q109,37 111,40 L111,42 L114,42 L114,40 Q116,37 116,34 L116,30 Q116,28 116,25 L117,25 L117,22 L116,22 L116,18 Q116,15 114,12 L114,8 Z"/>
    <!-- x=137 -->
    <path d="M136,8 L136,12 Q134,15 134,18 L134,22 L133,22 L133,25 L134,25 Q134,28 134,30 L134,34 Q134,37 136,40 L136,42 L139,42 L139,40 Q141,37 141,34 L141,30 Q141,28 141,25 L142,25 L142,22 L141,22 L141,18 Q141,15 139,12 L139,8 Z"/>
    <!-- x=162 -->
    <path d="M161,8 L161,12 Q159,15 159,18 L159,22 L158,22 L158,25 L159,25 Q159,28 159,30 L159,34 Q159,37 161,40 L161,42 L164,42 L164,40 Q166,37 166,34 L166,30 Q166,28 166,25 L167,25 L167,22 L166,22 L166,18 Q166,15 164,12 L164,8 Z"/>
    <!-- x=187 -->
    <path d="M186,8 L186,12 Q184,15 184,18 L184,22 L183,22 L183,25 L184,25 Q184,28 184,30 L184,34 Q184,37 186,40 L186,42 L189,42 L189,40 Q191,37 191,34 L191,30 Q191,28 191,25 L192,25 L192,22 L191,22 L191,18 Q191,15 189,12 L189,8 Z"/>
    <!-- x=212 -->
    <path d="M211,8 L211,12 Q209,15 209,18 L209,22 L208,22 L208,25 L209,25 Q209,28 209,30 L209,34 Q209,37 211,40 L211,42 L214,42 L214,40 Q216,37 216,34 L216,30 Q216,28 216,25 L217,25 L217,22 L216,22 L216,18 Q216,15 214,12 L214,8 Z"/>
    <!-- x=237 -->
    <path d="M236,8 L236,12 Q234,15 234,18 L234,22 L233,22 L233,25 L234,25 Q234,28 234,30 L234,34 Q234,37 236,40 L236,42 L239,42 L239,40 Q241,37 241,34 L241,30 Q241,28 241,25 L242,25 L242,22 L241,22 L241,18 Q241,15 239,12 L239,8 Z"/>
    <!-- x=262 -->
    <path d="M261,8 L261,12 Q259,15 259,18 L259,22 L258,22 L258,25 L259,25 Q259,28 259,30 L259,34 Q259,37 261,40 L261,42 L264,42 L264,40 Q266,37 266,34 L266,30 Q266,28 266,25 L267,25 L267,22 L266,22 L266,18 Q266,15 264,12 L264,8 Z"/>
    <!-- x=287 -->
    <path d="M286,8 L286,12 Q284,15 284,18 L284,22 L283,22 L283,25 L284,25 Q284,28 284,30 L284,34 Q284,37 286,40 L286,42 L289,42 L289,40 Q291,37 291,34 L291,30 Q291,28 291,25 L292,25 L292,22 L291,22 L291,18 Q291,15 289,12 L289,8 Z"/>
    <!-- x=312 -->
    <path d="M311,8 L311,12 Q309,15 309,18 L309,22 L308,22 L308,25 L309,25 Q309,28 309,30 L309,34 Q309,37 311,40 L311,42 L314,42 L314,40 Q316,37 316,34 L316,30 Q316,28 316,25 L317,25 L317,22 L316,22 L316,18 Q316,15 314,12 L314,8 Z"/>
    <!-- x=337 -->
    <path d="M336,8 L336,12 Q334,15 334,18 L334,22 L333,22 L333,25 L334,25 Q334,28 334,30 L334,34 Q334,37 336,40 L336,42 L339,42 L339,40 Q341,37 341,34 L341,30 Q341,28 341,25 L342,25 L342,22 L341,22 L341,18 Q341,15 339,12 L339,8 Z"/>
    <!-- x=362 -->
    <path d="M361,8 L361,12 Q359,15 359,18 L359,22 L358,22 L358,25 L359,25 Q359,28 359,30 L359,34 Q359,37 361,40 L361,42 L364,42 L364,40 Q366,37 366,34 L366,30 Q366,28 366,25 L367,25 L367,22 L366,22 L366,18 Q366,15 364,12 L364,8 Z"/>
    <!-- x=387 -->
    <path d="M386,8 L386,12 Q384,15 384,18 L384,22 L383,22 L383,25 L384,25 Q384,28 384,30 L384,34 Q384,37 386,40 L386,42 L389,42 L389,40 Q391,37 391,34 L391,30 Q391,28 391,25 L392,25 L392,22 L391,22 L391,18 Q391,15 389,12 L389,8 Z"/>
  </g>

  <!-- Decorative centre medallion -->
  <circle cx="200" cy="24" r="8" fill="url(#goldRailTop)" stroke="#B8860B" stroke-width="1"/>
  <circle cx="200" cy="24" r="5" fill="#DAA520"/>
  <!-- Theatre masks hint in medallion -->
  <text x="200" y="27" text-anchor="middle" font-size="8" fill="#8B6914">🎭</text>
</svg>
